<mxfile host="Electron" agent="Mozilla/5.0 (Windows NT 10.0; Win64; x64) AppleWebKit/537.36 (KHTML, like Gecko) draw.io/28.0.6 Chrome/138.0.7204.100 Electron/37.2.3 Safari/537.36" version="28.0.6">
  <diagram name="CRM &amp; ERP" id="6mgcKT_2Lx_rXxVK4CQE">
    <mxGraphModel dx="1371" dy="793" grid="1" gridSize="10" guides="1" tooltips="1" connect="1" arrows="1" fold="1" page="1" pageScale="1" pageWidth="1169" pageHeight="827" math="0" shadow="0">
      <root>
        <mxCell id="0" />
        <mxCell id="1" parent="0" />
        <mxCell id="IfCix_zik0wOKKFxHpB9-1" value="&lt;h1 style=&quot;margin-top: 0px;&quot;&gt;Intergration Model&lt;/h1&gt;" style="text;html=1;whiteSpace=wrap;overflow=hidden;rounded=0;" parent="1" vertex="1">
          <mxGeometry x="10" y="10" width="270" height="50" as="geometry" />
        </mxCell>
        <mxCell id="IfCix_zik0wOKKFxHpB9-2" value="(How two tables are related)" style="text;html=1;align=center;verticalAlign=middle;whiteSpace=wrap;rounded=0;" parent="1" vertex="1">
          <mxGeometry x="210" y="20" width="180" height="30" as="geometry" />
        </mxCell>
        <mxCell id="IfCix_zik0wOKKFxHpB9-3" value="&lt;font style=&quot;font-size: 18px;&quot;&gt;crm_cust_info&lt;/font&gt;" style="swimlane;fontStyle=0;childLayout=stackLayout;horizontal=1;startSize=30;horizontalStack=0;resizeParent=1;resizeParentMax=0;resizeLast=0;collapsible=1;marginBottom=0;whiteSpace=wrap;html=1;rounded=1;fillColor=#dae8fc;strokeColor=#6c8ebf;" parent="1" vertex="1">
          <mxGeometry x="356" y="510" width="220" height="110" as="geometry">
            <mxRectangle x="250" y="160" width="60" height="30" as="alternateBounds" />
          </mxGeometry>
        </mxCell>
        <mxCell id="IfCix_zik0wOKKFxHpB9-4" value="&lt;font style=&quot;font-size: 16px;&quot;&gt;cst_id&lt;/font&gt;" style="text;strokeColor=none;fillColor=none;align=left;verticalAlign=middle;spacingLeft=4;spacingRight=4;overflow=hidden;points=[[0,0.5],[1,0.5]];portConstraint=eastwest;rotatable=0;whiteSpace=wrap;html=1;fontSize=20;" parent="IfCix_zik0wOKKFxHpB9-3" vertex="1">
          <mxGeometry y="30" width="220" height="40" as="geometry" />
        </mxCell>
        <mxCell id="IfCix_zik0wOKKFxHpB9-28" value="&lt;font style=&quot;font-size: 16px;&quot;&gt;cst_key&lt;/font&gt;" style="text;strokeColor=none;fillColor=none;align=left;verticalAlign=middle;spacingLeft=4;spacingRight=4;overflow=hidden;points=[[0,0.5],[1,0.5]];portConstraint=eastwest;rotatable=0;whiteSpace=wrap;html=1;fontSize=20;" parent="IfCix_zik0wOKKFxHpB9-3" vertex="1">
          <mxGeometry y="70" width="220" height="40" as="geometry" />
        </mxCell>
        <mxCell id="IfCix_zik0wOKKFxHpB9-7" value="&lt;font style=&quot;font-size: 14px;&quot;&gt;Customer Information&lt;/font&gt;" style="text;html=1;align=center;verticalAlign=middle;whiteSpace=wrap;rounded=0;" parent="1" vertex="1">
          <mxGeometry x="346" y="480" width="230" height="30" as="geometry" />
        </mxCell>
        <mxCell id="IfCix_zik0wOKKFxHpB9-9" value="&lt;font style=&quot;font-size: 18px;&quot;&gt;crm_prd_info&lt;/font&gt;" style="swimlane;fontStyle=0;childLayout=stackLayout;horizontal=1;startSize=30;horizontalStack=0;resizeParent=1;resizeParentMax=0;resizeLast=0;collapsible=1;marginBottom=0;whiteSpace=wrap;html=1;rounded=1;fillColor=#dae8fc;strokeColor=#6c8ebf;" parent="1" vertex="1">
          <mxGeometry x="333.5" y="270" width="220" height="70" as="geometry">
            <mxRectangle x="250" y="160" width="60" height="30" as="alternateBounds" />
          </mxGeometry>
        </mxCell>
        <mxCell id="IfCix_zik0wOKKFxHpB9-10" value="&lt;font style=&quot;font-size: 15px;&quot;&gt;prd_key&lt;/font&gt;" style="text;strokeColor=none;fillColor=none;align=left;verticalAlign=middle;spacingLeft=4;spacingRight=4;overflow=hidden;points=[[0,0.5],[1,0.5]];portConstraint=eastwest;rotatable=0;whiteSpace=wrap;html=1;fontSize=20;" parent="IfCix_zik0wOKKFxHpB9-9" vertex="1">
          <mxGeometry y="30" width="220" height="40" as="geometry" />
        </mxCell>
        <mxCell id="IfCix_zik0wOKKFxHpB9-11" value="&lt;font style=&quot;font-size: 14px;&quot;&gt;Current &amp;amp; Historical Product Information&lt;/font&gt;" style="text;html=1;align=center;verticalAlign=middle;whiteSpace=wrap;rounded=0;" parent="1" vertex="1">
          <mxGeometry x="318.5" y="240" width="260" height="30" as="geometry" />
        </mxCell>
        <mxCell id="IfCix_zik0wOKKFxHpB9-24" style="edgeStyle=orthogonalEdgeStyle;rounded=0;orthogonalLoop=1;jettySize=auto;html=1;entryX=0;entryY=0.25;entryDx=0;entryDy=0;" parent="1" source="IfCix_zik0wOKKFxHpB9-17" target="IfCix_zik0wOKKFxHpB9-9" edge="1">
          <mxGeometry relative="1" as="geometry" />
        </mxCell>
        <mxCell id="IfCix_zik0wOKKFxHpB9-17" value="&lt;font style=&quot;font-size: 18px;&quot;&gt;crm_sales_details&lt;/font&gt;" style="swimlane;fontStyle=0;childLayout=stackLayout;horizontal=1;startSize=30;horizontalStack=0;resizeParent=1;resizeParentMax=0;resizeLast=0;collapsible=1;marginBottom=0;whiteSpace=wrap;html=1;rounded=1;fillColor=#dae8fc;strokeColor=#6c8ebf;" parent="1" vertex="1">
          <mxGeometry x="48.5" y="330" width="220" height="110" as="geometry">
            <mxRectangle x="250" y="160" width="60" height="30" as="alternateBounds" />
          </mxGeometry>
        </mxCell>
        <mxCell id="IfCix_zik0wOKKFxHpB9-18" value="&lt;font style=&quot;font-size: 17px;&quot;&gt;prd_key&lt;/font&gt;" style="text;strokeColor=none;fillColor=none;align=left;verticalAlign=middle;spacingLeft=4;spacingRight=4;overflow=hidden;points=[[0,0.5],[1,0.5]];portConstraint=eastwest;rotatable=0;whiteSpace=wrap;html=1;fontSize=20;" parent="IfCix_zik0wOKKFxHpB9-17" vertex="1">
          <mxGeometry y="30" width="220" height="40" as="geometry" />
        </mxCell>
        <mxCell id="IfCix_zik0wOKKFxHpB9-20" value="&lt;font style=&quot;font-size: 17px;&quot;&gt;cst_id&lt;/font&gt;" style="text;strokeColor=none;fillColor=none;align=left;verticalAlign=middle;spacingLeft=4;spacingRight=4;overflow=hidden;points=[[0,0.5],[1,0.5]];portConstraint=eastwest;rotatable=0;whiteSpace=wrap;html=1;fontSize=20;" parent="IfCix_zik0wOKKFxHpB9-17" vertex="1">
          <mxGeometry y="70" width="220" height="40" as="geometry" />
        </mxCell>
        <mxCell id="IfCix_zik0wOKKFxHpB9-19" value="&lt;font style=&quot;font-size: 14px;&quot;&gt;Transactional Records about Sales &amp;amp; Order&lt;/font&gt;" style="text;html=1;align=center;verticalAlign=middle;whiteSpace=wrap;rounded=0;" parent="1" vertex="1">
          <mxGeometry x="58.5" y="300" width="210" height="30" as="geometry" />
        </mxCell>
        <mxCell id="IfCix_zik0wOKKFxHpB9-23" style="edgeStyle=orthogonalEdgeStyle;rounded=0;orthogonalLoop=1;jettySize=auto;html=1;exitX=1;exitY=0.5;exitDx=0;exitDy=0;entryX=0.02;entryY=0.175;entryDx=0;entryDy=0;entryPerimeter=0;" parent="1" source="IfCix_zik0wOKKFxHpB9-20" target="IfCix_zik0wOKKFxHpB9-4" edge="1">
          <mxGeometry relative="1" as="geometry" />
        </mxCell>
        <mxCell id="IfCix_zik0wOKKFxHpB9-25" value="&lt;font style=&quot;font-size: 18px;&quot;&gt;erp_cust_az12&lt;/font&gt;" style="swimlane;fontStyle=0;childLayout=stackLayout;horizontal=1;startSize=30;horizontalStack=0;resizeParent=1;resizeParentMax=0;resizeLast=0;collapsible=1;marginBottom=0;whiteSpace=wrap;html=1;rounded=1;fillColor=#fff2cc;strokeColor=#d6b656;" parent="1" vertex="1">
          <mxGeometry x="873.5" y="440" width="220" height="70" as="geometry">
            <mxRectangle x="250" y="160" width="60" height="30" as="alternateBounds" />
          </mxGeometry>
        </mxCell>
        <mxCell id="IfCix_zik0wOKKFxHpB9-26" value="&lt;font style=&quot;font-size: 15px;&quot;&gt;cid&lt;/font&gt;" style="text;strokeColor=none;fillColor=none;align=left;verticalAlign=middle;spacingLeft=4;spacingRight=4;overflow=hidden;points=[[0,0.5],[1,0.5]];portConstraint=eastwest;rotatable=0;whiteSpace=wrap;html=1;fontSize=20;" parent="IfCix_zik0wOKKFxHpB9-25" vertex="1">
          <mxGeometry y="30" width="220" height="40" as="geometry" />
        </mxCell>
        <mxCell id="IfCix_zik0wOKKFxHpB9-27" value="&lt;font style=&quot;font-size: 14px;&quot;&gt;Extra Customer Information(Birthdate)&lt;/font&gt;" style="text;html=1;align=center;verticalAlign=middle;whiteSpace=wrap;rounded=0;" parent="1" vertex="1">
          <mxGeometry x="858.5" y="410" width="260" height="30" as="geometry" />
        </mxCell>
        <mxCell id="IfCix_zik0wOKKFxHpB9-32" style="edgeStyle=orthogonalEdgeStyle;rounded=0;orthogonalLoop=1;jettySize=auto;html=1;entryX=0.987;entryY=0.822;entryDx=0;entryDy=0;entryPerimeter=0;" parent="1" source="IfCix_zik0wOKKFxHpB9-26" target="IfCix_zik0wOKKFxHpB9-4" edge="1">
          <mxGeometry relative="1" as="geometry" />
        </mxCell>
        <mxCell id="IfCix_zik0wOKKFxHpB9-33" value="&lt;font style=&quot;font-size: 18px;&quot;&gt;erp_loc_a101&lt;/font&gt;" style="swimlane;fontStyle=0;childLayout=stackLayout;horizontal=1;startSize=30;horizontalStack=0;resizeParent=1;resizeParentMax=0;resizeLast=0;collapsible=1;marginBottom=0;whiteSpace=wrap;html=1;rounded=1;fillColor=#fff2cc;strokeColor=#d6b656;" parent="1" vertex="1">
          <mxGeometry x="873.5" y="620" width="220" height="70" as="geometry">
            <mxRectangle x="250" y="160" width="60" height="30" as="alternateBounds" />
          </mxGeometry>
        </mxCell>
        <mxCell id="IfCix_zik0wOKKFxHpB9-34" value="&lt;font style=&quot;font-size: 15px;&quot;&gt;cid&lt;/font&gt;" style="text;strokeColor=none;fillColor=none;align=left;verticalAlign=middle;spacingLeft=4;spacingRight=4;overflow=hidden;points=[[0,0.5],[1,0.5]];portConstraint=eastwest;rotatable=0;whiteSpace=wrap;html=1;fontSize=20;" parent="IfCix_zik0wOKKFxHpB9-33" vertex="1">
          <mxGeometry y="30" width="220" height="40" as="geometry" />
        </mxCell>
        <mxCell id="IfCix_zik0wOKKFxHpB9-35" value="&lt;font style=&quot;font-size: 14px;&quot;&gt;Location of Customers(Country)&lt;/font&gt;" style="text;html=1;align=center;verticalAlign=middle;whiteSpace=wrap;rounded=0;" parent="1" vertex="1">
          <mxGeometry x="843.5" y="590" width="260" height="30" as="geometry" />
        </mxCell>
        <mxCell id="IfCix_zik0wOKKFxHpB9-36" style="edgeStyle=orthogonalEdgeStyle;rounded=0;orthogonalLoop=1;jettySize=auto;html=1;entryX=0.992;entryY=0.822;entryDx=0;entryDy=0;entryPerimeter=0;" parent="1" source="IfCix_zik0wOKKFxHpB9-34" target="IfCix_zik0wOKKFxHpB9-4" edge="1">
          <mxGeometry relative="1" as="geometry" />
        </mxCell>
        <mxCell id="IfCix_zik0wOKKFxHpB9-37" value="&lt;font style=&quot;font-size: 18px;&quot;&gt;erp_px_cat_g1v2&lt;/font&gt;" style="swimlane;fontStyle=0;childLayout=stackLayout;horizontal=1;startSize=30;horizontalStack=0;resizeParent=1;resizeParentMax=0;resizeLast=0;collapsible=1;marginBottom=0;whiteSpace=wrap;html=1;rounded=1;fillColor=#fff2cc;strokeColor=#d6b656;" parent="1" vertex="1">
          <mxGeometry x="863.5" y="230" width="220" height="70" as="geometry">
            <mxRectangle x="250" y="160" width="60" height="30" as="alternateBounds" />
          </mxGeometry>
        </mxCell>
        <mxCell id="IfCix_zik0wOKKFxHpB9-38" value="&lt;font style=&quot;font-size: 15px;&quot;&gt;id&lt;/font&gt;" style="text;strokeColor=none;fillColor=none;align=left;verticalAlign=middle;spacingLeft=4;spacingRight=4;overflow=hidden;points=[[0,0.5],[1,0.5]];portConstraint=eastwest;rotatable=0;whiteSpace=wrap;html=1;fontSize=20;" parent="IfCix_zik0wOKKFxHpB9-37" vertex="1">
          <mxGeometry y="30" width="220" height="40" as="geometry" />
        </mxCell>
        <mxCell id="IfCix_zik0wOKKFxHpB9-39" value="&lt;font style=&quot;font-size: 14px;&quot;&gt;Product Categories&lt;/font&gt;" style="text;html=1;align=center;verticalAlign=middle;whiteSpace=wrap;rounded=0;" parent="1" vertex="1">
          <mxGeometry x="848.5" y="200" width="260" height="30" as="geometry" />
        </mxCell>
        <mxCell id="IfCix_zik0wOKKFxHpB9-40" style="edgeStyle=orthogonalEdgeStyle;rounded=0;orthogonalLoop=1;jettySize=auto;html=1;" parent="1" source="IfCix_zik0wOKKFxHpB9-38" target="IfCix_zik0wOKKFxHpB9-10" edge="1">
          <mxGeometry relative="1" as="geometry" />
        </mxCell>
        <mxCell id="IfCix_zik0wOKKFxHpB9-45" value="" style="rounded=1;whiteSpace=wrap;html=1;fillColor=none;dashed=1;" parent="1" vertex="1">
          <mxGeometry x="678.5" y="147" width="450" height="620" as="geometry" />
        </mxCell>
        <mxCell id="IfCix_zik0wOKKFxHpB9-46" value="\" style="rounded=1;whiteSpace=wrap;html=1;fillColor=none;dashed=1;" parent="1" vertex="1">
          <mxGeometry x="41" y="147" width="555" height="620" as="geometry" />
        </mxCell>
        <mxCell id="IfCix_zik0wOKKFxHpB9-47" value="&lt;b&gt;CRM&lt;/b&gt;" style="rounded=1;whiteSpace=wrap;html=1;fillColor=#dae8fc;strokeColor=#6c8ebf;fontSize=26;" parent="1" vertex="1">
          <mxGeometry x="241" y="120" width="120" height="60" as="geometry" />
        </mxCell>
        <mxCell id="IfCix_zik0wOKKFxHpB9-48" value="&lt;b&gt;ERP&lt;/b&gt;" style="rounded=1;whiteSpace=wrap;html=1;fillColor=#fff2cc;strokeColor=#d6b656;fontSize=26;" parent="1" vertex="1">
          <mxGeometry x="873.5" y="120" width="120" height="60" as="geometry" />
        </mxCell>
        <mxCell id="HmYhlUESoy5j6lTbtkA_-11" value="&lt;b&gt;PRODUCT&lt;/b&gt;" style="text;html=1;strokeColor=#b85450;fillColor=#f8cecc;align=center;verticalAlign=middle;whiteSpace=wrap;overflow=hidden;fontSize=20;" parent="1" vertex="1">
          <mxGeometry x="368.5" y="340" width="160" height="30" as="geometry" />
        </mxCell>
        <mxCell id="HmYhlUESoy5j6lTbtkA_-13" value="&lt;b&gt;CUSTOMER&lt;/b&gt;" style="text;html=1;strokeColor=#82b366;fillColor=#d5e8d4;align=center;verticalAlign=middle;whiteSpace=wrap;overflow=hidden;fontSize=20;" parent="1" vertex="1">
          <mxGeometry x="386" y="620" width="160" height="30" as="geometry" />
        </mxCell>
        <mxCell id="HmYhlUESoy5j6lTbtkA_-14" value="&lt;b&gt;PRODUCT&lt;/b&gt;" style="text;html=1;strokeColor=#b85450;fillColor=#f8cecc;align=center;verticalAlign=middle;whiteSpace=wrap;overflow=hidden;fontSize=20;" parent="1" vertex="1">
          <mxGeometry x="893.5" y="300" width="160" height="30" as="geometry" />
        </mxCell>
        <mxCell id="HmYhlUESoy5j6lTbtkA_-15" value="&lt;b&gt;CUSTOMER&lt;/b&gt;" style="text;html=1;strokeColor=#82b366;fillColor=#d5e8d4;align=center;verticalAlign=middle;whiteSpace=wrap;overflow=hidden;fontSize=20;" parent="1" vertex="1">
          <mxGeometry x="908.5" y="510" width="160" height="30" as="geometry" />
        </mxCell>
        <mxCell id="HmYhlUESoy5j6lTbtkA_-16" value="&lt;b&gt;CUSTOMER&lt;/b&gt;" style="text;html=1;strokeColor=#82b366;fillColor=#d5e8d4;align=center;verticalAlign=middle;whiteSpace=wrap;overflow=hidden;fontSize=20;" parent="1" vertex="1">
          <mxGeometry x="908.5" y="690" width="160" height="30" as="geometry" />
        </mxCell>
        <mxCell id="HmYhlUESoy5j6lTbtkA_-17" value="&lt;b&gt;SALES&lt;/b&gt;" style="text;html=1;strokeColor=#9673a6;fillColor=#e1d5e7;align=center;verticalAlign=middle;whiteSpace=wrap;overflow=hidden;fontSize=20;" parent="1" vertex="1">
          <mxGeometry x="83.5" y="440" width="160" height="30" as="geometry" />
        </mxCell>
      </root>
    </mxGraphModel>
  </diagram>
</mxfile>
